<svg width="16" height="16" viewBox="0 0 16 16" fill="currentColor" xmlns="http://www.w3.org/2000/svg">
<mask id="mask0_188_1548" style="mask-type:alpha" maskUnits="userSpaceOnUse" x="0" y="0" width="16" height="16">
<rect width="16" height="16" fill="#D9D9D9"/>
</mask>
<g mask="url(#mask0_188_1548)">
<path d="M9.64999 8.00008L4.74999 3.10008C4.58333 2.93341 4.50277 2.73619 4.50833 2.50841C4.51388 2.28064 4.59999 2.08341 4.76666 1.91675C4.93333 1.75008 5.13055 1.66675 5.35833 1.66675C5.5861 1.66675 5.78333 1.75008 5.94999 1.91675L11.0667 7.05008C11.2 7.18341 11.3 7.33341 11.3667 7.50008C11.4333 7.66675 11.4667 7.83341 11.4667 8.00008C11.4667 8.16675 11.4333 8.33341 11.3667 8.50008C11.3 8.66675 11.2 8.81675 11.0667 8.95008L5.93333 14.0834C5.76666 14.2501 5.57221 14.3306 5.34999 14.3251C5.12777 14.3195 4.93333 14.2334 4.76666 14.0667C4.59999 13.9001 4.51666 13.7029 4.51666 13.4751C4.51666 13.2473 4.59999 13.0501 4.76666 12.8834L9.64999 8.00008Z" />
</g>
</svg>
