<svg width="71" height="70" viewBox="0 0 71 70" fill="currentColor" xmlns="http://www.w3.org/2000/svg">
<mask id="mask0_394_1407" style="mask-type:alpha" maskUnits="userSpaceOnUse" x="0" y="0" width="71" height="70">
<rect x="0.582275" width="69.8354" height="69.8354" fill="#D9D9D9"/>
</mask>
<g mask="url(#mask0_394_1407)">
<path d="M3.4921 58.1962V50.0488C3.4921 48.3999 3.91644 46.8844 4.76514 45.5022C5.61383 44.12 6.74138 43.0652 8.14779 42.3378C11.1546 40.8344 14.2099 39.7068 17.3137 38.9551C20.4175 38.2034 23.5698 37.8276 26.7706 37.8276C29.9714 37.8276 33.1237 38.2034 36.2275 38.9551C39.3313 39.7068 42.3866 40.8344 45.3934 42.3378C46.7998 43.0652 47.9273 44.12 48.776 45.5022C49.6247 46.8844 50.0491 48.3999 50.0491 50.0488V58.1962H3.4921ZM55.8687 58.1962V49.4668C55.8687 47.333 55.2746 45.284 54.0864 43.3198C52.8983 41.3557 51.213 39.6705 49.0306 38.264C51.504 38.555 53.8318 39.0521 56.0142 39.7553C58.1965 40.4585 60.2334 41.3193 62.1248 42.3378C63.8707 43.3077 65.2043 44.3868 66.1258 45.5749C67.0472 46.7631 67.5079 48.0604 67.5079 49.4668V58.1962H55.8687ZM26.7706 34.9178C23.5698 34.9178 20.8297 33.7781 18.5504 31.4987C16.271 29.2194 15.1313 26.4793 15.1313 23.2785C15.1313 20.0777 16.271 17.3377 18.5504 15.0583C20.8297 12.779 23.5698 11.6393 26.7706 11.6393C29.9714 11.6393 32.7114 12.779 34.9908 15.0583C37.2701 17.3377 38.4098 20.0777 38.4098 23.2785C38.4098 26.4793 37.2701 29.2194 34.9908 31.4987C32.7114 33.7781 29.9714 34.9178 26.7706 34.9178ZM55.8687 23.2785C55.8687 26.4793 54.729 29.2194 52.4497 31.4987C50.1703 33.7781 47.4302 34.9178 44.2294 34.9178C43.696 34.9178 43.017 34.8571 42.1926 34.7359C41.3681 34.6147 40.6892 34.4813 40.1557 34.3358C41.4651 32.7839 42.4714 31.0623 43.1746 29.1709C43.8778 27.2795 44.2294 25.3154 44.2294 23.2785C44.2294 21.2417 43.8778 19.2775 43.1746 17.3862C42.4714 15.4948 41.4651 13.7731 40.1557 12.2212C40.8347 11.9788 41.5136 11.8211 42.1926 11.7484C42.8715 11.6757 43.5505 11.6393 44.2294 11.6393C47.4302 11.6393 50.1703 12.779 52.4497 15.0583C54.729 17.3377 55.8687 20.0777 55.8687 23.2785Z" fill="#969696"/>
</g>
</svg>
