<svg width="21" height="21" viewBox="0 0 21 21" fill="currentColor" xmlns="http://www.w3.org/2000/svg">
<path d="M20.4586 10.2456C20.4586 9.5134 20.3927 8.81281 20.2702 8.13913H10.7936V11.9988L16.2514 11.9999C16.03 13.2842 15.3176 14.3789 14.2261 15.1087V17.6128H17.4748C19.3718 15.8689 20.4586 13.2912 20.4586 10.2456Z" fill="#4285F4"/>
<path d="M14.2272 15.1088C13.3229 15.7146 12.1583 16.069 10.796 16.069C8.16422 16.069 5.93167 14.3076 5.13214 11.9333H1.78096V14.5158C3.44124 17.7883 6.85366 20.0339 10.796 20.0339C13.5207 20.0339 15.8098 19.1438 17.476 17.6117L14.2272 15.1088Z" fill="#34A853"/>
<path d="M4.81655 10.0176C4.81655 9.3509 4.92842 8.70646 5.13213 8.10061V5.51816H1.78094C1.09445 6.87137 0.708234 8.39886 0.708234 10.0176C0.708234 11.6363 1.09563 13.1638 1.78094 14.517L5.13213 11.9345C4.92842 11.3287 4.81655 10.6842 4.81655 10.0176Z" fill="#FABB05"/>
<path d="M10.796 3.96494C12.2831 3.96494 13.6149 4.47371 14.6664 5.46786L17.5454 2.61055C15.7968 0.993013 13.5172 3.05176e-05 10.796 3.05176e-05C6.85484 3.05176e-05 3.44124 2.24564 1.78096 5.51815L5.13214 8.10061C5.93167 5.72634 8.16422 3.96494 10.796 3.96494Z" fill="#E94235"/>
</svg>
