<svg width="24" height="24" viewBox="0 0 24 24" fill="currentColor" xmlns="http://www.w3.org/2000/svg">
    <mask id="mask0_188_1345" style="mask-type:alpha" maskUnits="userSpaceOnUse" x="0" y="0" width="24" height="24">
        <rect x="0.833252" width="24" height="24"/>
    </mask>
    <g mask="url(#mask0_188_1345)">
        <path d="M1.83325 17.2C1.83325 16.6333 1.97909 16.1125 2.27075 15.6375C2.56242 15.1625 2.94992 14.8 3.43325 14.55C4.46659 14.0333 5.51659 13.6458 6.58325 13.3875C7.64992 13.1292 8.73325 13 9.83325 13C10.9333 13 12.0166 13.1292 13.0833 13.3875C14.1499 13.6458 15.1999 14.0333 16.2333 14.55C16.7166 14.8 17.1041 15.1625 17.3958 15.6375C17.6874 16.1125 17.8333 16.6333 17.8333 17.2V18C17.8333 18.55 17.6374 19.0208 17.2458 19.4125C16.8541 19.8042 16.3833 20 15.8333 20H3.83325C3.28325 20 2.81242 19.8042 2.42075 19.4125C2.02909 19.0208 1.83325 18.55 1.83325 18V17.2ZM21.8333 20H19.2833C19.4666 19.7 19.6041 19.3792 19.6958 19.0375C19.7874 18.6958 19.8333 18.35 19.8333 18V17C19.8333 16.2667 19.6291 15.5625 19.2208 14.8875C18.8124 14.2125 18.2333 13.6333 17.4833 13.15C18.3333 13.25 19.1333 13.4208 19.8833 13.6625C20.6333 13.9042 21.3333 14.2 21.9833 14.55C22.5833 14.8833 23.0416 15.2542 23.3583 15.6625C23.6749 16.0708 23.8333 16.5167 23.8333 17V18C23.8333 18.55 23.6374 19.0208 23.2458 19.4125C22.8541 19.8042 22.3833 20 21.8333 20ZM9.83325 12C8.73325 12 7.79159 11.6083 7.00825 10.825C6.22492 10.0417 5.83325 9.1 5.83325 8C5.83325 6.9 6.22492 5.95833 7.00825 5.175C7.79159 4.39167 8.73325 4 9.83325 4C10.9333 4 11.8749 4.39167 12.6583 5.175C13.4416 5.95833 13.8333 6.9 13.8333 8C13.8333 9.1 13.4416 10.0417 12.6583 10.825C11.8749 11.6083 10.9333 12 9.83325 12ZM19.8333 8C19.8333 9.1 19.4416 10.0417 18.6583 10.825C17.8749 11.6083 16.9333 12 15.8333 12C15.6499 12 15.4166 11.9792 15.1333 11.9375C14.8499 11.8958 14.6166 11.85 14.4333 11.8C14.8833 11.2667 15.2291 10.675 15.4708 10.025C15.7124 9.375 15.8333 8.7 15.8333 8C15.8333 7.3 15.7124 6.625 15.4708 5.975C15.2291 5.325 14.8833 4.73333 14.4333 4.2C14.6666 4.11667 14.8999 4.0625 15.1333 4.0375C15.3666 4.0125 15.5999 4 15.8333 4C16.9333 4 17.8749 4.39167 18.6583 5.175C19.4416 5.95833 19.8333 6.9 19.8333 8ZM3.83325 18H15.8333V17.2C15.8333 17.0167 15.7874 16.85 15.6958 16.7C15.6041 16.55 15.4833 16.4333 15.3333 16.35C14.4333 15.9 13.5249 15.5625 12.6083 15.3375C11.6916 15.1125 10.7666 15 9.83325 15C8.89992 15 7.97492 15.1125 7.05825 15.3375C6.14159 15.5625 5.23325 15.9 4.33325 16.35C4.18325 16.4333 4.06242 16.55 3.97075 16.7C3.87909 16.85 3.83325 17.0167 3.83325 17.2V18ZM9.83325 10C10.3833 10 10.8541 9.80417 11.2458 9.4125C11.6374 9.02083 11.8333 8.55 11.8333 8C11.8333 7.45 11.6374 6.97917 11.2458 6.5875C10.8541 6.19583 10.3833 6 9.83325 6C9.28325 6 8.81242 6.19583 8.42075 6.5875C8.02909 6.97917 7.83325 7.45 7.83325 8C7.83325 8.55 8.02909 9.02083 8.42075 9.4125C8.81242 9.80417 9.28325 10 9.83325 10Z"/>
    </g>
</svg>
