<svg width="28" height="28" viewBox="0 0 28 28" fill="currentColor" xmlns="http://www.w3.org/2000/svg">
    <mask id="mask0_188_1544" style="mask-type:alpha" maskUnits="userSpaceOnUse" x="0" y="0" width="28" height="28">
        <rect width="28" height="28"/>
    </mask>
    <g mask="url(#mask0_188_1544)">
        <path d="M12.8333 15.1666H6.99998C6.66942 15.1666 6.39234 15.0548 6.16873 14.8312C5.94512 14.6076 5.83331 14.3305 5.83331 14C5.83331 13.6694 5.94512 13.3923 6.16873 13.1687C6.39234 12.9451 6.66942 12.8333 6.99998 12.8333H12.8333V6.99998C12.8333 6.66942 12.9451 6.39234 13.1687 6.16873C13.3923 5.94512 13.6694 5.83331 14 5.83331C14.3305 5.83331 14.6076 5.94512 14.8312 6.16873C15.0548 6.39234 15.1666 6.66942 15.1666 6.99998V12.8333H21C21.3305 12.8333 21.6076 12.9451 21.8312 13.1687C22.0548 13.3923 22.1666 13.6694 22.1666 14C22.1666 14.3305 22.0548 14.6076 21.8312 14.8312C21.6076 15.0548 21.3305 15.1666 21 15.1666H15.1666V21C15.1666 21.3305 15.0548 21.6076 14.8312 21.8312C14.6076 22.0548 14.3305 22.1666 14 22.1666C13.6694 22.1666 13.3923 22.0548 13.1687 21.8312C12.9451 21.6076 12.8333 21.3305 12.8333 21V15.1666Z"/>
    </g>
</svg>
