<svg width="71" height="70" viewBox="0 0 71 70" fill="currentColor" xmlns="http://www.w3.org/2000/svg">
<mask id="mask0_394_1415" style="mask-type:alpha" maskUnits="userSpaceOnUse" x="0" y="0" width="71" height="70">
<rect x="0.5" width="70" height="70" />
</mask>
<g mask="url(#mask0_394_1415)">
<path d="M35.8333 35.3333C32.625 35.3333 29.8785 34.191 27.5938 31.9063C25.309 29.6215 24.1667 26.875 24.1667 23.6667C24.1667 20.4583 25.309 17.7118 27.5938 15.4271C29.8785 13.1424 32.625 12 35.8333 12C39.0417 12 41.7882 13.1424 44.0729 15.4271C46.3576 17.7118 47.5 20.4583 47.5 23.6667C47.5 26.875 46.3576 29.6215 44.0729 31.9063C41.7882 34.191 39.0417 35.3333 35.8333 35.3333ZM12.5 58.6667V50.5C12.5 48.8472 12.9253 47.3281 13.776 45.9427C14.6267 44.5573 15.7569 43.5 17.1667 42.7708C20.1806 41.2639 23.2431 40.1337 26.3542 39.3802C29.4653 38.6267 32.625 38.25 35.8333 38.25C39.0417 38.25 42.2014 38.6267 45.3125 39.3802C48.4236 40.1337 51.4861 41.2639 54.5 42.7708C55.9097 43.5 57.0399 44.5573 57.8906 45.9427C58.7413 47.3281 59.1667 48.8472 59.1667 50.5V58.6667H12.5Z"/>
</g>
</svg>
