<svg width="24" height="24" viewBox="0 0 24 24" fill="currentColor" xmlns="http://www.w3.org/2000/svg">
    <mask id="mask0_188_1288" style="mask-type:alpha" maskUnits="userSpaceOnUse" x="0" y="0" width="24" height="24">
        <rect x="0.166504" width="24" height="24"/>
    </mask>
    <g mask="url(#mask0_188_1288)">
        <path d="M19.2165 21.6L16.2915 18.7L14.7915 20.2C14.6082 20.3834 14.3748 20.475 14.0915 20.475C13.8082 20.475 13.5748 20.3834 13.3915 20.2C13.0082 19.8167 12.8165 19.3417 12.8165 18.775C12.8165 18.2084 13.0082 17.7334 13.3915 17.35L17.6165 13.125C17.9998 12.7417 18.4748 12.55 19.0415 12.55C19.6082 12.55 20.0832 12.7417 20.4665 13.125C20.6498 13.3084 20.7415 13.5417 20.7415 13.825C20.7415 14.1084 20.6498 14.3417 20.4665 14.525L18.9665 16.025L21.8665 18.95C22.0665 19.15 22.1665 19.3834 22.1665 19.65C22.1665 19.9167 22.0665 20.15 21.8665 20.35L20.6165 21.6C20.4165 21.8 20.1832 21.9 19.9165 21.9C19.6498 21.9 19.4165 21.8 19.2165 21.6ZM21.8665 6.20002L10.8165 17.25L10.9415 17.35C11.3248 17.7334 11.5165 18.2084 11.5165 18.775C11.5165 19.3417 11.3248 19.8167 10.9415 20.2C10.7582 20.3834 10.5248 20.475 10.2415 20.475C9.95817 20.475 9.72484 20.3834 9.5415 20.2L8.0415 18.7L5.1165 21.6C4.9165 21.8 4.68317 21.9 4.4165 21.9C4.14984 21.9 3.9165 21.8 3.7165 21.6L2.4665 20.35C2.2665 20.15 2.1665 19.9167 2.1665 19.65C2.1665 19.3834 2.2665 19.15 2.4665 18.95L5.3665 16.025L3.8665 14.525C3.68317 14.3417 3.5915 14.1084 3.5915 13.825C3.5915 13.5417 3.68317 13.3084 3.8665 13.125C4.24984 12.7417 4.72484 12.55 5.2915 12.55C5.85817 12.55 6.33317 12.7417 6.7165 13.125L6.8165 13.25L17.5915 2.47502C17.7748 2.29169 17.9873 2.15002 18.229 2.05002C18.4707 1.95002 18.7248 1.90002 18.9915 1.90002H21.1665C21.4498 1.90002 21.6873 1.99586 21.879 2.18752C22.0707 2.37919 22.1665 2.61669 22.1665 2.90002V5.47502C22.1665 5.60836 22.1415 5.73752 22.0915 5.86252C22.0415 5.98752 21.9665 6.10002 21.8665 6.20002ZM6.3915 10.125L2.7415 6.47502C2.55817 6.29169 2.4165 6.07919 2.3165 5.83752C2.2165 5.59586 2.1665 5.34169 2.1665 5.07502V2.90002C2.1665 2.61669 2.26234 2.37919 2.454 2.18752C2.64567 1.99586 2.88317 1.90002 3.1665 1.90002H5.3415C5.60817 1.90002 5.86234 1.95002 6.104 2.05002C6.34567 2.15002 6.55817 2.29169 6.7415 2.47502L10.3915 6.12502C10.5915 6.32502 10.6915 6.56252 10.6915 6.83752C10.6915 7.11252 10.5915 7.35002 10.3915 7.55002L7.8165 10.125C7.6165 10.325 7.379 10.425 7.104 10.425C6.829 10.425 6.5915 10.325 6.3915 10.125Z"/>
    </g>
</svg>
